<svg xmlns="http://www.w3.org/2000/svg" width="50" height="50" viewBox="0 0 50 50">
  <g id="Group_2" data-name="Group 2" transform="translate(-1591 -132)">
    <g id="Ellipse_1" data-name="Ellipse 1" transform="translate(1591 132)" fill="rgba(247,239,167,0.22)" stroke="#000" stroke-width="1">
      <circle cx="25" cy="25" r="25" stroke="none"/>
      <circle cx="25" cy="25" r="24.5" fill="none"/>
    </g>
    <path id="_7d034137275ddc22d44b04c7b8c2d04e" data-name="7d034137275ddc22d44b04c7b8c2d04e" d="M26.652,15.732l-3.107,9.784a1.646,1.646,0,0,1-1.568,1.161H9.987A1.712,1.712,0,0,1,8.39,25.6L3.8,13.323H1.161a1.161,1.161,0,1,1,0-2.323H4.616a1.189,1.189,0,0,1,1.1.784l4.732,12.571H21.484l2.468-7.839H10.278a1.161,1.161,0,1,1,0-2.323H25.549a1.154,1.154,0,0,1,.929.494A1.126,1.126,0,0,1,26.652,15.732ZM10.568,28.216a1.883,1.883,0,1,0,1.336.552A1.915,1.915,0,0,0,10.568,28.216Zm10.423,0a1.883,1.883,0,1,0,1.336.552A1.915,1.915,0,0,0,20.991,28.216Z" transform="translate(1603 136)"/>
  </g>
</svg>
