<svg xmlns="http://www.w3.org/2000/svg" width="69" height="69" viewBox="0 0 69 69">
  <g id="Group_1248" data-name="Group 1248" transform="translate(-644 -1249)">
    <g id="Path_930" data-name="Path 930" transform="translate(644 1249)" fill="#fff">
      <path d="M 34.5 68.5 C 29.90980911254883 68.5 25.45718955993652 67.60111999511719 21.26581954956055 65.82832336425781 C 17.2171802520752 64.11589050292969 13.58102989196777 61.66429138183594 10.45837020874023 58.54162979125977 C 7.335710048675537 55.41896820068359 4.884109973907471 51.78282165527344 3.171679973602295 47.73418045043945 C 1.398880004882812 43.54281997680664 0.5 39.09019088745117 0.5 34.5 C 0.5 29.90980911254883 1.398880004882812 25.45718955993652 3.171679973602295 21.26581954956055 C 4.884109973907471 17.2171802520752 7.335710048675537 13.58102989196777 10.45837020874023 10.45837020874023 C 13.58102989196777 7.335710048675537 17.2171802520752 4.884109973907471 21.26581954956055 3.171679973602295 C 25.45718955993652 1.398880004882812 29.90980911254883 0.5 34.5 0.5 C 39.09019088745117 0.5 43.54281997680664 1.398880004882812 47.73418045043945 3.171679973602295 C 51.78282165527344 4.884109973907471 55.41896820068359 7.335710048675537 58.54162979125977 10.45837020874023 C 61.66429138183594 13.58102989196777 64.11589050292969 17.2171802520752 65.82832336425781 21.26581954956055 C 67.60111999511719 25.45718955993652 68.5 29.90980911254883 68.5 34.5 C 68.5 39.09019088745117 67.60111999511719 43.54281997680664 65.82832336425781 47.73418045043945 C 64.11589050292969 51.78282165527344 61.66429138183594 55.41896820068359 58.54162979125977 58.54162979125977 C 55.41896820068359 61.66429138183594 51.78282165527344 64.11589050292969 47.73418045043945 65.82832336425781 C 43.54281997680664 67.60111999511719 39.09019088745117 68.5 34.5 68.5 Z" stroke="none"/>
      <path d="M 34.5 1 C 29.97708892822266 1 25.59000015258789 1.885589599609375 21.46059036254883 3.632179260253906 C 17.47156143188477 5.319400787353516 13.88882064819336 7.735019683837891 10.81192016601562 10.81192016601562 C 7.735019683837891 13.88882064819336 5.319400787353516 17.47156143188477 3.632179260253906 21.46059036254883 C 1.885589599609375 25.59000015258789 1 29.97708892822266 1 34.5 C 1 39.02291107177734 1.885589599609375 43.40999984741211 3.632179260253906 47.53939819335938 C 5.319400787353516 51.5284423828125 7.735019683837891 55.11116790771484 10.81192016601562 58.18807983398438 C 13.88882064819336 61.26498031616211 17.47156143188477 63.68059158325195 21.46059036254883 65.36781311035156 C 25.59000015258789 67.11440277099609 29.97708892822266 68 34.5 68 C 39.02291107177734 68 43.40999984741211 67.11440277099609 47.53939819335938 65.36781311035156 C 51.5284423828125 63.68059158325195 55.11116790771484 61.26498031616211 58.18807983398438 58.18807983398438 C 61.26498031616211 55.11116790771484 63.68059158325195 51.5284423828125 65.36781311035156 47.53939819335938 C 67.11440277099609 43.40999984741211 68 39.02291107177734 68 34.5 C 68 29.97708892822266 67.11440277099609 25.59000015258789 65.36781311035156 21.46059036254883 C 63.68059158325195 17.47156143188477 61.26498031616211 13.88882064819336 58.18807983398438 10.81192016601562 C 55.11116790771484 7.735019683837891 51.5284423828125 5.319400787353516 47.53939819335938 3.632179260253906 C 43.40999984741211 1.885589599609375 39.02291107177734 1 34.5 1 M 34.5 0 C 53.55381774902344 0 69 15.44617080688477 69 34.5 C 69 53.55381774902344 53.55381774902344 69 34.5 69 C 15.44617080688477 69 0 53.55381774902344 0 34.5 C 0 15.44617080688477 15.44617080688477 0 34.5 0 Z" stroke="none" fill="#000"/>
    </g>
    <path id="Path_913" data-name="Path 913" d="M14,36a4,4,0,1,0,4,4A3.982,3.982,0,0,0,14,36ZM2,4V8H6l7.19,15.17-2.7,4.9A4.066,4.066,0,0,0,10,30a4,4,0,0,0,4,4H38V30H14.85a.5.5,0,0,1-.5-.5.475.475,0,0,1,.06-.24L16.2,26H31.1a4.013,4.013,0,0,0,3.5-2.06l7.15-12.98A1.933,1.933,0,0,0,42,10a2,2,0,0,0-2-2H10.43L8.53,4H2ZM34,36a4,4,0,1,0,4,4A3.982,3.982,0,0,0,34,36Z" transform="translate(656 1263)"/>
    <path id="Path_914" data-name="Path 914" d="M0,0H48V48H0Z" transform="translate(656 1263)" fill="none"/>
  </g>
</svg>
