<svg xmlns="http://www.w3.org/2000/svg" width="819" height="789.5" viewBox="0 0 819 789.5">
  <g id="Group_1288" data-name="Group 1288" transform="translate(0 -294)">
    <path id="Rectangle_8" data-name="Rectangle 8" d="M50,0H819a0,0,0,0,1,0,0V786a0,0,0,0,1,0,0H50A50,50,0,0,1,0,736V50A50,50,0,0,1,50,0Z" transform="translate(0 294)" fill="rgba(0,0,0,0.25)"/>
    <g id="Group_13" data-name="Group 13" transform="translate(-1057 296)">
      <text id="Up_to" data-name="Up to" transform="translate(1376 497)" fill="#fff" font-size="97" font-family="Gordita-Bold, Gordita" font-weight="700" letter-spacing="0.12em"><tspan x="0" y="0">Up to</tspan></text>
      <g id="Group_12" data-name="Group 12" transform="translate(156.5)">
        <text id="_10" data-name="10" transform="translate(1179.5 719.5)" fill="none" stroke="#fff" stroke-width="3" font-size="221" font-family="Gordita-Bold, Gordita" font-weight="700" letter-spacing="0.12em"><tspan x="0" y="0">10</tspan></text>
        <g id="Group_11" data-name="Group 11" transform="translate(0 19.5)">
          <text id="_" data-name="%" transform="translate(1513.5 626.5)" fill="none" stroke="#fff" stroke-width="3" font-size="112" font-family="Gordita-Bold, Gordita" font-weight="700" letter-spacing="0.12em"><tspan x="0" y="0">%</tspan></text>
          <text id="off" transform="translate(1504.5 700)" fill="none" stroke="#fff" stroke-width="0.5" font-size="50" font-family="Gordita-Light, Gordita" font-weight="300" letter-spacing="0.12em"><tspan x="0" y="0">OFF</tspan></text>
        </g>
      </g>
    </g>
  </g>
</svg>
